<?xml version="1.0" encoding="UTF-8"?>
<svg id="Layer_2" data-name="Layer 2" xmlns="http://www.w3.org/2000/svg" viewBox="0 0 650.68 655.06">
  <g id="Layer_1-2" data-name="Layer 1">
    <g>
      <path d="m125.66,586.42c56.07,43.3,126.38,68.95,202.65,68.64,30.27-2.66,60.89-8.32,89-18.45,27.49-9.88,52.7-24.1,72.65-44.15,26.02-26.07,37.09-51.55,36.85-72.74-.25-21.56-12.55-37.94-32.41-45.93-20.98-8.23-50.14-7.32-83.95,7.7-20.26,8.96-41.88,20.43-64.49,32.39-69.7,36.78-147.61,77.97-220.29,72.53h0Z"/>
      <path d="m273.89.24c-70.47,11.49-133.21,45.12-181.17,93.62C52.45,134.71,22.58,185.98,7.95,243.26c11.4-12.15,24.42-22.69,38.46-30.75,44.97-25.55,92.91-32.8,140.72-39.93,42.46-6.35,84.67-12.82,120.7-32.71,29.19-16.12,47.76-38.78,54.98-61.5,3.8-11.86,4.48-23.45,1.8-33.91-2.55-9.96-8.08-19.02-16.97-26.2C332.62,5.89,308.27-1.45,273.89.24h0Z"/>
      <path d="m643.71,233.81c-15.89-54.74-45.45-103.68-84.93-142.58-43.99-43.49-100.24-74.7-163-88.06,6.28,9.19,10.7,19.38,13.38,30.08,4.84,18.79,3.84,39.11-2.53,59.08-10.53,33.08-36.52,65.51-76.52,87.79-43.48,24.05-89.8,30.92-136.24,37.91-43.46,6.6-87.16,13.08-124.67,34.6-74.25,26.22-111.42,174.72,6.96,172.93,84.85-2.35,140.29-50.52,195.97-98.94l4.84-4.26c32.61-28.35,69.84-57.47,110.21-80.5,41.49-23.66,86.38-40.87,132.97-44.24,10.59-.81,20.81-.87,30.78-.17,35.41,2.54,67.5,14.07,92.8,36.36h0Z"/>
      <path d="m568.73,549.64c46.57-50.24,86.53-123.99,81.52-194.37-2.83-37.99-14.95-65.34-33-83.18-17.8-17.6-42.15-26.8-69.45-28.64-7.98-.58-16.08-.53-24.3.01-38.99,2.84-77.41,17.76-113.56,38.4-37.39,21.4-72.25,48.64-102.88,75.35l-4.96,4.27c-61.76,53.69-123.27,107.12-224.69,109.94-18.44.48-34.4-1.3-48.38-5.21,3.41,7.21,7.06,14.42,10.96,21.25,75.32,96.4,188.76,36.44,284.43-14.2,23.73-12.47,46.47-24.56,67.35-33.78,46.12-20.45,88.11-20.94,119.71-8.4,37.22,14.87,60.84,47.88,61.19,88.13.18,9.84-1.13,19.95-3.94,30.43h0Z"/>
    </g>
  </g>
</svg>